<?xml version="1.0" encoding="UTF-8" standalone="no"?>
<svg
   xmlns:dc="http://purl.org/dc/elements/1.1/"
   xmlns:cc="http://creativecommons.org/ns#"
   xmlns:rdf="http://www.w3.org/1999/02/22-rdf-syntax-ns#"
   xmlns:svg="http://www.w3.org/2000/svg"
   xmlns="http://www.w3.org/2000/svg"
   xmlns:xlink="http://www.w3.org/1999/xlink"
   id="svg57"
   height="48"
   width="48"
   version="1.1">
  <defs
     id="defs3">
    <linearGradient
       id="linearGradient381">
      <stop
         offset="0"
         style="stop-color:#ffffff;stop-opacity:1"
         id="stop382" />
      <stop
         offset="1"
         style="stop-color:#ffffff;stop-opacity:0"
         id="stop383" />
    </linearGradient>
    <linearGradient
       id="linearGradient368">
      <stop
         offset="0"
         style="stop-color:#ffffff;stop-opacity:0.10309278"
         id="stop369" />
      <stop
         offset="1"
         style="stop-color:#ffffff;stop-opacity:0"
         id="stop372" />
    </linearGradient>
    <linearGradient
       id="linearGradient1065">
      <stop
         offset="0"
         style="stop-color:#b5c051;stop-opacity:1"
         id="stop1066" />
      <stop
         offset="1"
         style="stop-color:#858e3f;stop-opacity:1"
         id="stop1067" />
    </linearGradient>
    <linearGradient
       gradientUnits="userSpaceOnUse"
       id="linearGradient641"
       y2="72.608902"
       x2="192.3857"
       y1="72.608902"
       x1="78.245598">
      <stop
         offset="0"
         style="stop-color:#f9feff;stop-opacity:1"
         id="stop642" />
      <stop
         offset="1"
         style="stop-color:#afb4b6;stop-opacity:1"
         id="stop643" />
    </linearGradient>
    <linearGradient
       gradientTransform="scale(1.244363,0.803624)"
       gradientUnits="userSpaceOnUse"
       xlink:href="#linearGradient177"
       id="linearGradient234"
       y2="137.97153"
       x2="136.9856"
       y1="67.364906"
       x1="81.307533" />
    <linearGradient
       id="linearGradient513">
      <stop
         offset="0"
         style="stop-color:#696969;stop-opacity:1"
         id="stop514" />
      <stop
         offset="1"
         style="stop-color:#ffffff;stop-opacity:1"
         id="stop515" />
    </linearGradient>
    <linearGradient
       id="linearGradient508">
      <stop
         offset="0"
         style="stop-color:#b0b0b0;stop-opacity:1"
         id="stop509" />
      <stop
         offset="1"
         style="stop-color:#b0b0b0;stop-opacity:1"
         id="stop510" />
    </linearGradient>
    <linearGradient
       gradientUnits="userSpaceOnUse"
       id="linearGradient477"
       y2="72.608902"
       x2="192.3857"
       y1="72.608902"
       x1="78.245598">
      <stop
         offset="0"
         style="stop-color:#e4e9ea;stop-opacity:1"
         id="stop478" />
      <stop
         offset="1"
         style="stop-color:#85898a;stop-opacity:1"
         id="stop479" />
    </linearGradient>
    <linearGradient
       id="linearGradient454">
      <stop
         offset="0"
         style="stop-color:#ffffff;stop-opacity:1"
         id="stop455" />
      <stop
         offset="0.5"
         style="stop-color:#bebebe;stop-opacity:1"
         id="stop457" />
      <stop
         offset="1"
         style="stop-color:#b0b0b0;stop-opacity:1"
         id="stop456" />
    </linearGradient>
    <linearGradient
       id="linearGradient177">
      <stop
         offset="0"
         style="stop-color:#ffffff;stop-opacity:1"
         id="stop178" />
      <stop
         offset="1"
         style="stop-color:#b0b0b0;stop-opacity:1"
         id="stop179" />
    </linearGradient>
    <linearGradient
       id="linearGradient172">
      <stop
         offset="0"
         style="stop-color:#616c08;stop-opacity:1"
         id="stop173" />
      <stop
         offset="1"
         style="stop-color:#495106;stop-opacity:1"
         id="stop174" />
    </linearGradient>
    <linearGradient
       id="linearGradient161">
      <stop
         offset="0"
         style="stop-color:#575955;stop-opacity:1"
         id="stop162" />
      <stop
         offset="1"
         style="stop-color:#7c7e79;stop-opacity:1"
         id="stop163" />
    </linearGradient>
    <linearGradient
       id="linearGradient157">
      <stop
         offset="0"
         style="stop-color:#babdb6;stop-opacity:1"
         id="stop158" />
      <stop
         offset="1"
         style="stop-color:#f1f5ec;stop-opacity:1"
         id="stop159" />
    </linearGradient>
    <linearGradient
       id="linearGradient149">
      <stop
         offset="0"
         style="stop-color:#000000;stop-opacity:1"
         id="stop150" />
      <stop
         offset="1"
         style="stop-color:#000000;stop-opacity:0"
         id="stop151" />
    </linearGradient>
    <linearGradient
       id="linearGradient1869">
      <stop
         offset="0"
         style="stop-color:#eff3f4;stop-opacity:1"
         id="stop1870" />
      <stop
         offset="1"
         style="stop-color:#939596;stop-opacity:1"
         id="stop1871" />
    </linearGradient>
    <linearGradient
       gradientTransform="matrix(1.464893,0,0,0.475906,30.56501,-34.34268)"
       gradientUnits="userSpaceOnUse"
       xlink:href="#linearGradient1869"
       id="linearGradient1872"
       y2="110.61378"
       x2="-4.523921"
       y1="104.38752"
       x1="-4.6375198" />
    <linearGradient
       gradientTransform="matrix(3.495016,0,0,0.344323,-2.972087,-0.03408148)"
       gradientUnits="userSpaceOnUse"
       xlink:href="#linearGradient149"
       id="linearGradient152"
       y2="69.460503"
       x2="7.5291119"
       y1="27.376621"
       x1="7.3738608" />
    <linearGradient
       gradientTransform="matrix(0.772488,0,0,1.55784,-2.79531,-0.166664)"
       gradientUnits="userSpaceOnUse"
       xlink:href="#linearGradient157"
       id="linearGradient160"
       y2="6.8897982"
       x2="60.685902"
       y1="6.8897982"
       x1="55.208271" />
    <linearGradient
       gradientTransform="matrix(2.374946,0,0,0.506711,-2.79531,-0.166664)"
       gradientUnits="userSpaceOnUse"
       xlink:href="#linearGradient161"
       id="linearGradient164"
       y2="21.169638"
       x2="19.737663"
       y1="21.169638"
       x1="2.9325604" />
    <radialGradient
       gradientTransform="matrix(2.202254,0,0,0.574568,-13.83631,0.652472)"
       gradientUnits="userSpaceOnUse"
       xlink:href="#linearGradient477"
       id="radialGradient605"
       fy="20.45278"
       fx="16.280994"
       r="5.6434927"
       cy="20.45278"
       cx="16.280994" />
    <linearGradient
       gradientTransform="matrix(1.399756,0,0,0.903977,-3.99312,0.7519)"
       gradientUnits="userSpaceOnUse"
       xlink:href="#linearGradient454"
       id="linearGradient606"
       y2="14.74888"
       x2="18.086929"
       y1="11.165159"
       x1="14.248631" />
    <linearGradient
       gradientTransform="scale(1.244363,0.803624)"
       gradientUnits="userSpaceOnUse"
       xlink:href="#linearGradient177"
       id="linearGradient607"
       y2="122.61145"
       x2="132.98843"
       y1="116.66409"
       x1="128.35213" />
    <linearGradient
       gradientTransform="matrix(1.399756,0,0,0.903977,-3.99312,0.797381)"
       gradientUnits="userSpaceOnUse"
       xlink:href="#linearGradient177"
       id="linearGradient608"
       y2="14.744809"
       x2="20.135639"
       y1="8.7251825"
       x1="9.9626188" />
    <linearGradient
       gradientTransform="matrix(1.124876,0,0,1.124876,-3.99312,0.7519)"
       gradientUnits="userSpaceOnUse"
       xlink:href="#linearGradient477"
       id="linearGradient609"
       y2="10.115389"
       x2="40.437176"
       y1="2.3488793"
       x1="24.162909" />
    <linearGradient
       gradientTransform="matrix(-1.449414,0.286552,-0.469381,0.965804,-2.70059,0.453616)"
       gradientUnits="userSpaceOnUse"
       xlink:href="#linearGradient513"
       id="linearGradient610"
       y2="24.077389"
       x2="-36.301399"
       y1="18.817307"
       x1="-32.400455" />
    <linearGradient
       gradientTransform="matrix(0.82649,0.763061,0.763061,-0.82649,-30.95946,-9.495656)"
       gradientUnits="userSpaceOnUse"
       xlink:href="#linearGradient477"
       id="linearGradient611"
       y2="20.664473"
       x2="45.130928"
       y1="13.131673"
       x1="36.155384" />
    <linearGradient
       gradientTransform="matrix(1.399756,0,0,0.903977,-2.86035,0.227876)"
       gradientUnits="userSpaceOnUse"
       xlink:href="#linearGradient177"
       id="linearGradient612"
       y2="9.3615303"
       x2="13.763388"
       y1="14.035932"
       x1="16.551964" />
    <linearGradient
       gradientTransform="matrix(1.027326,-0.134612,0.528454,0.53648,8.12216,4.8634)"
       gradientUnits="userSpaceOnUse"
       xlink:href="#linearGradient508"
       id="linearGradient613"
       y2="14.744809"
       x2="20.135639"
       y1="8.7251825"
       x1="9.9626188" />
    <linearGradient
       gradientTransform="scale(1.244363,0.803624)"
       gradientUnits="userSpaceOnUse"
       xlink:href="#linearGradient177"
       id="linearGradient632"
       y2="137.97153"
       x2="136.9856"
       y1="67.364906"
       x1="81.307533" />
    <radialGradient
       gradientTransform="matrix(0.878817,0,0,1.025708,1.24328,2.850095)"
       gradientUnits="userSpaceOnUse"
       xlink:href="#linearGradient641"
       id="radialGradient640"
       fy="8.9303417"
       fx="39.14772"
       r="13.265761"
       cy="8.9303417"
       cx="39.14772" />
    <linearGradient
       gradientTransform="scale(1.175635,0.850604)"
       gradientUnits="userSpaceOnUse"
       xlink:href="#linearGradient1065"
       id="linearGradient1068"
       y2="37.720802"
       x2="30.587307"
       y1="33.139202"
       x1="10.861447" />
    <linearGradient
       gradientTransform="scale(1.175635,0.850604)"
       gradientUnits="userSpaceOnUse"
       xlink:href="#linearGradient172"
       id="linearGradient101"
       y2="52.625473"
       x2="19.672924"
       y1="23.114082"
       x1="19.347122" />
    <linearGradient
       gradientTransform="scale(1.175636,0.850604)"
       gradientUnits="userSpaceOnUse"
       xlink:href="#linearGradient368"
       id="linearGradient374"
       y2="48.805084"
       x2="25.31245"
       y1="25.335417"
       x1="17.573946" />
    <linearGradient
       gradientTransform="scale(1.215669,0.822592)"
       gradientUnits="userSpaceOnUse"
       xlink:href="#linearGradient381"
       id="linearGradient384"
       y2="23.600779"
       x2="19.857769"
       y1="38.962704"
       x1="19.977491" />
  </defs>
  <metadata
     id="metadata4">
    <rdf:RDF>
      <cc:Work
         rdf:about="">
        <dc:format>image/svg+xml</dc:format>
        <dc:type
           rdf:resource="http://purl.org/dc/dcmitype/StillImage" />
        <dc:title></dc:title>
        <dc:date>2003-02-03</dc:date>
        <dc:creator>
          <cc:Agent>
            <dc:title>Jakub Steiner</dc:title>
          </cc:Agent>
        </dc:creator>
        <dc:subject>
          <rdf:Bag>
            <rdf:li>trash</rdf:li>
            <rdf:li>delete</rdf:li>
            <rdf:li>deleted files</rdf:li>
            <rdf:li>waste</rdf:li>
            <rdf:li>recycle</rdf:li>
            <rdf:li>bin</rdf:li>
            <rdf:li>full</rdf:li>
          </rdf:Bag>
        </dc:subject>
        <dc:publisher>
          <cc:Agent>
            <dc:title>Novell, Inc.</dc:title>
          </cc:Agent>
        </dc:publisher>
        <cc:license
           rdf:resource="http://creativecommons.org/licenses/by-sa/2.0/" />
      </cc:Work>
      <cc:License
         rdf:about="http://creativecommons.org/licenses/by-sa/2.0/">
        <cc:permits
           rdf:resource="http://web.resource.org/cc/Reproduction" />
        <cc:permits
           rdf:resource="http://web.resource.org/cc/Distribution" />
        <cc:requires
           rdf:resource="http://web.resource.org/cc/Notice" />
        <cc:requires
           rdf:resource="http://web.resource.org/cc/Attribution" />
        <cc:permits
           rdf:resource="http://web.resource.org/cc/DerivativeWorks" />
        <cc:requires
           rdf:resource="http://web.resource.org/cc/ShareAlike" />
      </cc:License>
    </rdf:RDF>
  </metadata>
  <g
     id="layer1" />
  <g
     style="fill-rule:nonzero;stroke:#000000;stroke-miterlimit:4"
     id="g189"
     transform="matrix(1.030048,0,-0.165186,-0.642915,2.47714,64.74043)">
    <g
       style="stroke:none"
       id="g190">
      <g
         id="g191">
        <g
           style="opacity:0"
           id="g192">
          <path
             id="path193"
             d="M 9.9,39.7 C 8,39.7 5.7,38.3 4.8,36.6 L 3,33.1 C 2.1,31.4 2.5,28.9 3.9,27.5 l 0.8,-0.8 c 1.4,-1.4 4.1,-2.5 6,-2.5 h 29 c 1.9,0 4.7,1 6.2,2.2 l 1.7,1.4 c 1.5,1.2 2.1,3.7 1.4,5.4 l -1.3,3.1 c -0.7,1.8 -2.9,3.2 -4.9,3.2 z" />
        </g>
        <g
           style="opacity:0.01360001"
           id="g194">
          <path
             id="path195"
             d="M 5,27.5 C 6.4,26.1 9,25 11,25 h 28.8 c 1.9,0 4.7,1 6.2,2.3 l 1,0.9 c 1.5,1.2 2.1,3.7 1.3,5.5 l -1,2.5 c -0.7,1.8 -2.9,3.2 -4.9,3.2 L 10.3,39.5 C 8.4,39.5 6.1,38.1 5.2,36.4 L 3.7,33.6 C 2.8,31.9 3.2,29.3 4.5,28 Z" />
        </g>
        <g
           style="opacity:0.02729995"
           id="g196">
          <path
             id="path197"
             d="m 5.4,28.3 c 1.3,-1.4 3.9,-2.5 5.8,-2.5 h 28.6 c 1.9,0 4.7,1 6.1,2.3 l 0.5,0.4 c 1.4,1.3 2,3.8 1.3,5.6 L 47,35.9 c -0.7,1.8 -2.9,3.2 -4.8,3.2 L 11,39.2 C 9.1,39.2 6.8,37.8 5.9,36.1 L 4.7,34 C 3.8,32.3 4.1,29.7 5.4,28.4 Z" />
        </g>
        <g
           style="opacity:0.04090002"
           id="g198">
          <path
             id="path199"
             d="M 5.9,28.9 C 7,27.6 9.5,26.6 11.4,26.6 h 28.4 c 1.9,0 4.6,1.1 6,2.4 1.4,1.3 1.9,3.8 1.1,5.6 l -0.5,1.1 c -0.7,1.8 -2.9,3.2 -4.8,3.3 H 11.3 C 9.4,39 7.1,37.6 6.2,35.9 L 5.4,34.4 C 4.5,32.7 4.7,30.2 5.8,28.9 Z" />
        </g>
        <g
           style="opacity:0.05449997"
           id="g200">
          <path
             id="path201"
             d="m 6.5,29.5 c 1,-1.2 3.3,-2.1 5.2,-2.1 h 28.1 c 1.9,0 4.5,1 5.6,2.2 1.1,1.2 1.5,3.6 0.8,5.4 L 46,35.4 c -0.7,1.8 -2.9,3.2 -4.8,3.3 L 11.7,38.8 C 9.8,38.8 7.5,37.4 6.6,35.7 L 6.2,34.9 C 5.3,33.2 5.4,30.8 6.4,29.6 Z" />
        </g>
        <g
           style="opacity:0.06820003"
           id="g202">
          <path
             id="path203"
             d="m 7,30.1 c 0.8,-1.1 3,-2 4.9,-2 h 27.9 c 1.9,0 4.3,0.9 5.3,2 1,1.1 1.2,3.4 0.5,5.1 -0.7,1.7 -2.9,3.1 -4.8,3.1 L 12.2,38.4 C 10.3,38.4 8,37 7.1,35.3 L 7,35.1 C 6.1,33.4 6.1,31.1 6.9,30 Z" />
        </g>
        <g
           style="opacity:0.08179997"
           id="g204">
          <path
             id="path205"
             d="m 7.5,30.7 c 0.6,-1 2.7,-1.8 4.7,-1.8 h 27.7 c 1.9,0 4.1,0.8 4.9,1.8 0.8,1 0.9,3.1 0.3,4.6 -0.6,1.5 -2.7,2.8 -4.6,2.8 L 12.8,38.2 C 10.9,38.2 8.7,36.9 7.9,35.3 7.1,33.7 7,31.6 7.6,30.6 Z" />
        </g>
        <g
           style="opacity:0.09549997"
           id="g206">
          <path
             id="path207"
             d="m 8.1,31.3 c 0.5,-0.9 2.4,-1.6 4.4,-1.6 H 40 c 1.9,0 4,0.7 4.6,1.6 0.6,0.9 0.6,2.8 0.1,4.1 -0.5,1.3 -2.6,2.5 -4.5,2.5 L 13.2,38 C 11.3,38 9.1,36.8 8.5,35.4 7.8,34 7.7,32.1 8.1,31.2 Z" />
        </g>
        <g
           style="opacity:0.10909998"
           id="g208">
          <path
             id="path209"
             d="m 8.6,31.9 c 0.3,-0.8 2.1,-1.4 4.1,-1.4 h 27.2 c 1.9,0 3.8,0.7 4.2,1.5 0.4,0.8 0.3,2.4 -0.1,3.6 -0.4,1.2 -2.4,2.1 -4.4,2.1 l -26,0.1 c -1.9,0 -4,-1 -4.5,-2.2 C 8.5,34.4 8.3,32.7 8.6,32 Z" />
        </g>
        <g
           style="opacity:0.12269999"
           id="g210">
          <path
             id="path211"
             d="M 9.2,32.5 C 9.3,31.8 11,31.3 13,31.3 h 27 c 1.9,0 3.7,0.6 3.9,1.3 0.2,0.7 0,2.1 -0.3,3.1 -0.4,1 -2.3,1.8 -4.2,1.8 L 14.2,37.6 C 12.3,37.6 10.3,36.7 9.8,35.7 9.3,34.6 9.1,33.2 9.2,32.6 Z" />
        </g>
        <g
           style="opacity:0.13639999"
           id="g212">
          <path
             id="path213"
             d="m 9.7,33.1 c 0,-0.6 1.6,-1 3.5,-1 H 40 c 1.9,0 3.5,0.5 3.5,1.1 0,0.6 -0.2,1.8 -0.6,2.6 -0.4,0.8 -2.1,1.5 -4.1,1.5 H 14.5 c -1.9,0 -3.8,-0.7 -4.2,-1.6 C 9.9,34.8 9.6,33.6 9.6,33.1 Z" />
        </g>
        <g
           style="opacity:0.15"
           id="g214">
          <path
             id="path215"
             d="m 15,37 c -1.9,0 -3.9,-0.9 -4.3,-2.1 -0.4,-1.2 0.8,-2.1 2.7,-2.1 H 40 c 1.9,0 3.2,0.9 2.7,2.1 C 42.3,36 40.4,37 38.5,37 Z" />
        </g>
      </g>
    </g>
  </g>
  <path
     style="fill:url(#linearGradient1068);fill-opacity:1;fill-rule:evenodd;stroke:url(#linearGradient101);stroke-width:1.25;stroke-linecap:butt;stroke-linejoin:miter;stroke-miterlimit:4;stroke-opacity:1"
     id="path1751"
     d="m 3.836697,16.810238 c -0.044089,-0.03506 1.731963,25.223968 1.732469,25.231625 0.166614,2.522544 1.565267,3.444491 3.130763,3.448247 0.055941,1.29e-4 29.36948,-0.0032 29.994007,-0.0059 2.636366,-0.01109 3.282248,-1.61654 3.455675,-3.370659 0.01391,-0.03458 1.789053,-25.268751 1.80296,-25.303337 -13.371957,0 -26.743914,0 -40.115874,0 z" />
  <path
     style="fill:url(#linearGradient1872);fill-opacity:1;fill-rule:evenodd;stroke:#4d5506;stroke-width:1.25;stroke-linecap:butt;stroke-linejoin:miter;stroke-miterlimit:4;stroke-opacity:1"
     id="path1841"
     d="M 7.538492,4.7306315 C 6.494167,4.7330003 5.620149,4.7569809 5.144078,5.7442051 5.061333,5.9157934 2.539129,12.879834 2.417869,13.145414 c -1.038105,2.273602 -0.08076,5.137624 1.92431,5.118449 0.381315,-0.0035 39.510222,0.01776 40.116984,0 1.706821,-0.04908 1.925238,-3.365584 1.190463,-4.857527 -0.04163,-0.08452 -3.451799,-7.7570361 -3.538774,-7.8929342 -0.402274,-0.6069229 -1.30313,-0.8729138 -1.972297,-0.8480012 -0.131821,0.00503 -32.4696,0.064936 -32.600063,0.065231 z" />
  <path
     style="color:#000000;display:block;visibility:visible;fill:url(#linearGradient164);fill-opacity:1;fill-rule:evenodd;stroke:none;stroke-width:0;marker:none"
     id="path1864"
     d="M 7.72045,6.3900545 C 6.735524,6.3773223 6.671388,6.3392466 6.449677,7.0362462 6.398497,7.1971422 4.336482,13.531607 4.255655,13.777418 c -0.274879,0.835953 0.113825,1.05657 1.067748,1.039577 0.337924,-0.006 37.346756,0 37.884766,0 0.763772,0 0.990332,-0.2516 0.817805,-0.845397 C 43.955868,13.730313 41.085266,6.9669634 41.008179,6.8465153 40.651639,6.3085929 40.713471,6.3101594 40.09072,6.3025755 39.973809,6.301151 7.836071,6.3915492 7.72045,6.3900545 Z" />
  <path
     style="color:#000000;display:block;visibility:visible;fill:#2e3436;fill-opacity:1;fill-rule:evenodd;stroke:none;stroke-width:0;marker:none"
     id="path1880"
     d="m 7.191437,6.3869852 c -0.370875,0.028313 -0.54926,0.1382019 -0.704493,0.6262163 -0.05118,0.1608959 -2.11093,6.4860145 -2.191758,6.7318255 -0.274879,0.835948 0.089771,1.060685 1.043695,1.043693 0.016523,-2.92e-4 1.953333,2.42e-4 2.136667,0 z" />
  <path
     style="color:#000000;display:block;visibility:visible;fill:url(#linearGradient160);fill-opacity:1;fill-rule:evenodd;stroke:none;stroke-width:0;marker:none"
     id="path1888"
     d="m 40.143457,6.2999077 c 0.450756,0.00385 0.583121,-0.00518 0.871284,0.5395238 0.03941,0.074491 2.874397,6.7931695 2.976187,7.0389795 0.34617,0.947104 -0.31313,0.927301 -1.358836,0.954772 -0.198658,-2.93e-4 -2.548854,-0.02199 -2.779734,-0.02223 l 0.291099,-8.5110423 z" />
  <path
     style="color:#000000;display:block;visibility:visible;fill:url(#linearGradient152);fill-opacity:1;fill-rule:nonzero;stroke:none;stroke-width:0;marker:none"
     id="path1893"
     d="M 43.188383,18.930946 7.1998593,18.907789 c 27.1142967,0.630566 32.4414867,3.60944 35.7465157,3.457235 z" />
  <g
     style="fill:#ffffff;fill-opacity:0.48809521"
     id="g144"
     transform="matrix(1.420021,0,0,1.420021,-67.25409,-7.48474)">
    <path
       style="fill-rule:evenodd;stroke:none"
       id="path41"
       d="m 64.131147,25.325447 3.796986,0.289697 1.468264,-3.574559 -1.737263,1.220989 c 0,0 -0.744908,-1.737405 -1.280311,-1.877076 -0.535402,-0.13967 -2.819691,-0.09311 -2.819691,-0.09311 0.726563,0.179688 1.291235,1.428127 1.299915,1.442289 0.22667,0.369856 0.861173,1.614383 0.861173,1.614383 l -1.589073,0.97739 z" />
    <path
       style="color:#000000;display:inline;overflow:visible;visibility:visible;fill-opacity:0.30952382;fill-rule:evenodd;stroke:none;stroke-width:1px;marker:none"
       id="path130"
       d="m 64.600893,22.852762 -1.256872,2.397672 -2.5839,-1.629486 c 0,0 1.171698,-2.211445 2.095054,-2.211445 0.931167,0 1.347281,0.802634 1.745718,1.443259 z" />
    <path
       style="fill-rule:evenodd;stroke:none"
       id="path139"
       d="m 66.450976,28.545542 -2.448028,2.925737 2.336128,3.01678 0.04321,-1.900121 c 0,0 1.720763,0.162391 2.115702,-0.225149 0.394937,-0.38754 2.037947,-2.341519 2.037947,-2.341519 -0.527497,0.530969 -1.888664,0.373874 -1.905274,0.374044 -0.433766,0.0044 -2.150557,-0.03566 -2.150557,-0.03566 l -0.02913,-1.814112 z" />
    <path
       style="color:#000000;display:inline;overflow:visible;visibility:visible;fill-opacity:0.30952382;fill-rule:evenodd;stroke:none;stroke-width:1px;marker:none"
       id="path140"
       d="m 68.748409,30.061355 -1.411063,-2.310293 2.725645,-1.379355 c 0,0 1.29507,2.141531 0.8206,2.933658 -0.478482,0.798828 -1.380866,0.743367 -2.135182,0.75599 z" />
    <path
       style="fill-rule:evenodd;stroke:none"
       id="path142"
       d="m 62.170193,28.37565 -1.208497,-3.182719 -3.523941,0.24904 1.446617,1.053806 c 0,0 -0.999037,1.410433 -0.860135,1.946036 0.138902,0.535602 0.922543,2.754594 0.922543,2.754594 -0.197098,-0.722035 0.617989,-1.823438 0.626127,-1.837919 0.212539,-0.378153 1.10357,-1.846158 1.10357,-1.846158 z" />
    <path
       style="color:#000000;display:inline;overflow:visible;visibility:visible;fill-opacity:0.30952382;fill-rule:evenodd;stroke:none;stroke-width:1px;marker:none"
       id="path143"
       d="m 59.752772,29.661147 2.706208,-0.07067 -0.163985,3.050389 c 0,0 -2.502082,0.05431 -2.951982,-0.752026 -0.453705,-0.813157 0.04446,-1.567613 0.409759,-2.227696 z" />
  </g>
  <path
     style="fill:url(#linearGradient374);fill-opacity:1;fill-rule:evenodd;stroke:none"
     id="path344"
     d="m 41.62473,23.651808 c -5.325371,2.33441 -12.620527,4.669183 -18.568512,4.71875 -6.539985,0.0545 -11.358669,3.160467 -16.2399269,5.544194 0.1946769,2.880217 0.4093909,4.891194 0.674556,8.116767 0.1322673,1.608953 0.637924,1.570733 2.9403709,1.570733 9.11145,0 21.065416,0.01294 28.257583,0.01294 1.760538,0 1.559573,-1.251731 1.654679,-2.450444 0.460397,-5.802858 0.874247,-11.688495 1.28125,-17.512944 z" />
  <path
     style="fill:none;stroke:url(#linearGradient384);stroke-width:1.13999999;stroke-linecap:butt;stroke-linejoin:miter;stroke-miterlimit:4;stroke-dasharray:none;stroke-opacity:0.2857143"
     id="path375"
     d="m 5.2098606,19.402822 c -0.051406,-1.32e-4 0.8391931,12.6756 1.5467643,21.565562 0.1825359,2.28199 0.5535262,3.21077 1.9911541,3.21077 11.851299,0 28.69411,0.08515 29.267626,0.08307 2.774576,-0.01005 2.72265,-1.026034 2.952439,-3.184709 0.08365,-0.785834 1.536974,-21.586304 1.523109,-21.586304 -9.929964,0 -25.012293,-0.05677 -37.2810924,-0.08839 z" />
</svg>
