<?xml version="1.0" encoding="UTF-8" standalone="no"?>
<!-- Created with Inkscape (http://www.inkscape.org/) -->

<svg
   xmlns:dc="http://purl.org/dc/elements/1.1/"
   xmlns:cc="http://creativecommons.org/ns#"
   xmlns:rdf="http://www.w3.org/1999/02/22-rdf-syntax-ns#"
   xmlns:svg="http://www.w3.org/2000/svg"
   xmlns="http://www.w3.org/2000/svg"
   xmlns:xlink="http://www.w3.org/1999/xlink"
   xmlns:sodipodi="http://sodipodi.sourceforge.net/DTD/sodipodi-0.dtd"
   xmlns:inkscape="http://www.inkscape.org/namespaces/inkscape"
   version="1.1"
   width="48"
   height="48"
   id="svg57"
   sodipodi:docname="Riesgo Biologico.svg"
   inkscape:version="0.92.3 (2405546, 2018-03-11)">
  <sodipodi:namedview
     pagecolor="#ffffff"
     bordercolor="#666666"
     borderopacity="1"
     objecttolerance="10"
     gridtolerance="10"
     guidetolerance="10"
     inkscape:pageopacity="0"
     inkscape:pageshadow="2"
     inkscape:window-width="1920"
     inkscape:window-height="1018"
     id="namedview133"
     showgrid="false"
     inkscape:zoom="9.8333331"
     inkscape:cx="51.613914"
     inkscape:cy="14.573519"
     inkscape:window-x="0"
     inkscape:window-y="34"
     inkscape:window-maximized="1"
     inkscape:current-layer="svg57" />
  <defs
     id="defs3">
    <linearGradient
       id="linearGradient381">
      <stop
         id="stop382"
         style="stop-color:#ffffff;stop-opacity:1"
         offset="0" />
      <stop
         id="stop383"
         style="stop-color:#ffffff;stop-opacity:0"
         offset="1" />
    </linearGradient>
    <linearGradient
       id="linearGradient368">
      <stop
         id="stop369"
         style="stop-color:#ffffff;stop-opacity:0.10309278"
         offset="0" />
      <stop
         id="stop372"
         style="stop-color:#ffffff;stop-opacity:0"
         offset="1" />
    </linearGradient>
    <linearGradient
       id="linearGradient1065">
      <stop
         id="stop1066"
         style="stop-color:#b5c051;stop-opacity:1"
         offset="0" />
      <stop
         id="stop1067"
         style="stop-color:#858e3f;stop-opacity:1"
         offset="1" />
    </linearGradient>
    <linearGradient
       x1="78.245598"
       y1="72.608902"
       x2="192.3857"
       y2="72.608902"
       id="linearGradient641"
       gradientUnits="userSpaceOnUse">
      <stop
         id="stop642"
         style="stop-color:#f9feff;stop-opacity:1"
         offset="0" />
      <stop
         id="stop643"
         style="stop-color:#afb4b6;stop-opacity:1"
         offset="1" />
    </linearGradient>
    <linearGradient
       x1="81.307533"
       y1="67.364906"
       x2="136.9856"
       y2="137.97153"
       id="linearGradient234"
       xlink:href="#linearGradient177"
       gradientUnits="userSpaceOnUse"
       gradientTransform="scale(1.244363,0.803624)" />
    <linearGradient
       id="linearGradient513">
      <stop
         id="stop514"
         style="stop-color:#696969;stop-opacity:1"
         offset="0" />
      <stop
         id="stop515"
         style="stop-color:#ffffff;stop-opacity:1"
         offset="1" />
    </linearGradient>
    <linearGradient
       id="linearGradient508">
      <stop
         id="stop509"
         style="stop-color:#b0b0b0;stop-opacity:1"
         offset="0" />
      <stop
         id="stop510"
         style="stop-color:#b0b0b0;stop-opacity:1"
         offset="1" />
    </linearGradient>
    <linearGradient
       x1="78.245598"
       y1="72.608902"
       x2="192.3857"
       y2="72.608902"
       id="linearGradient477"
       gradientUnits="userSpaceOnUse">
      <stop
         id="stop478"
         style="stop-color:#e4e9ea;stop-opacity:1"
         offset="0" />
      <stop
         id="stop479"
         style="stop-color:#85898a;stop-opacity:1"
         offset="1" />
    </linearGradient>
    <linearGradient
       id="linearGradient454">
      <stop
         id="stop455"
         style="stop-color:#ffffff;stop-opacity:1"
         offset="0" />
      <stop
         id="stop457"
         style="stop-color:#bebebe;stop-opacity:1"
         offset="0.5" />
      <stop
         id="stop456"
         style="stop-color:#b0b0b0;stop-opacity:1"
         offset="1" />
    </linearGradient>
    <linearGradient
       id="linearGradient177">
      <stop
         id="stop178"
         style="stop-color:#ffffff;stop-opacity:1"
         offset="0" />
      <stop
         id="stop179"
         style="stop-color:#b0b0b0;stop-opacity:1"
         offset="1" />
    </linearGradient>
    <linearGradient
       id="linearGradient172">
      <stop
         id="stop173"
         style="stop-color:#616c08;stop-opacity:1"
         offset="0" />
      <stop
         id="stop174"
         style="stop-color:#495106;stop-opacity:1"
         offset="1" />
    </linearGradient>
    <linearGradient
       id="linearGradient161">
      <stop
         id="stop162"
         style="stop-color:#575955;stop-opacity:1"
         offset="0" />
      <stop
         id="stop163"
         style="stop-color:#7c7e79;stop-opacity:1"
         offset="1" />
    </linearGradient>
    <linearGradient
       id="linearGradient157">
      <stop
         id="stop158"
         style="stop-color:#babdb6;stop-opacity:1"
         offset="0" />
      <stop
         id="stop159"
         style="stop-color:#f1f5ec;stop-opacity:1"
         offset="1" />
    </linearGradient>
    <linearGradient
       id="linearGradient149">
      <stop
         id="stop150"
         style="stop-color:#000000;stop-opacity:1"
         offset="0" />
      <stop
         id="stop151"
         style="stop-color:#000000;stop-opacity:0"
         offset="1" />
    </linearGradient>
    <linearGradient
       id="linearGradient1869">
      <stop
         id="stop1870"
         style="stop-color:#eff3f4;stop-opacity:1"
         offset="0" />
      <stop
         id="stop1871"
         style="stop-color:#939596;stop-opacity:1"
         offset="1" />
    </linearGradient>
    <linearGradient
       x1="-4.6375198"
       y1="104.38752"
       x2="-4.523921"
       y2="110.61378"
       id="linearGradient1872"
       xlink:href="#linearGradient1869"
       gradientUnits="userSpaceOnUse"
       gradientTransform="matrix(1.464893,0,0,0.475906,30.56501,-34.34268)" />
    <linearGradient
       x1="7.3738608"
       y1="27.376621"
       x2="7.5291119"
       y2="69.460503"
       id="linearGradient152"
       xlink:href="#linearGradient149"
       gradientUnits="userSpaceOnUse"
       gradientTransform="matrix(3.495016,0,0,0.344323,-2.972087,-0.03408148)" />
    <linearGradient
       x1="55.208271"
       y1="6.8897982"
       x2="60.685902"
       y2="6.8897982"
       id="linearGradient160"
       xlink:href="#linearGradient157"
       gradientUnits="userSpaceOnUse"
       gradientTransform="matrix(0.772488,0,0,1.55784,-2.79531,-0.166664)" />
    <linearGradient
       x1="2.9325604"
       y1="21.169638"
       x2="19.737663"
       y2="21.169638"
       id="linearGradient164"
       xlink:href="#linearGradient161"
       gradientUnits="userSpaceOnUse"
       gradientTransform="matrix(2.374946,0,0,0.506711,-2.79531,-0.166664)" />
    <radialGradient
       cx="16.280994"
       cy="20.45278"
       r="5.6434927"
       fx="16.280994"
       fy="20.45278"
       id="radialGradient605"
       xlink:href="#linearGradient477"
       gradientUnits="userSpaceOnUse"
       gradientTransform="matrix(2.202254,0,0,0.574568,-13.83631,0.652472)" />
    <linearGradient
       x1="14.248631"
       y1="11.165159"
       x2="18.086929"
       y2="14.74888"
       id="linearGradient606"
       xlink:href="#linearGradient454"
       gradientUnits="userSpaceOnUse"
       gradientTransform="matrix(1.399756,0,0,0.903977,-3.99312,0.7519)" />
    <linearGradient
       x1="128.35213"
       y1="116.66409"
       x2="132.98843"
       y2="122.61145"
       id="linearGradient607"
       xlink:href="#linearGradient177"
       gradientUnits="userSpaceOnUse"
       gradientTransform="scale(1.244363,0.803624)" />
    <linearGradient
       x1="9.9626188"
       y1="8.7251825"
       x2="20.135639"
       y2="14.744809"
       id="linearGradient608"
       xlink:href="#linearGradient177"
       gradientUnits="userSpaceOnUse"
       gradientTransform="matrix(1.399756,0,0,0.903977,-3.99312,0.797381)" />
    <linearGradient
       x1="24.162909"
       y1="2.3488793"
       x2="40.437176"
       y2="10.115389"
       id="linearGradient609"
       xlink:href="#linearGradient477"
       gradientUnits="userSpaceOnUse"
       gradientTransform="matrix(1.124876,0,0,1.124876,-3.99312,0.7519)" />
    <linearGradient
       x1="-32.400455"
       y1="18.817307"
       x2="-36.301399"
       y2="24.077389"
       id="linearGradient610"
       xlink:href="#linearGradient513"
       gradientUnits="userSpaceOnUse"
       gradientTransform="matrix(-1.449414,0.286552,-0.469381,0.965804,-2.70059,0.453616)" />
    <linearGradient
       x1="36.155384"
       y1="13.131673"
       x2="45.130928"
       y2="20.664473"
       id="linearGradient611"
       xlink:href="#linearGradient477"
       gradientUnits="userSpaceOnUse"
       gradientTransform="matrix(0.82649,0.763061,0.763061,-0.82649,-30.95946,-9.495656)" />
    <linearGradient
       x1="16.551964"
       y1="14.035932"
       x2="13.763388"
       y2="9.3615303"
       id="linearGradient612"
       xlink:href="#linearGradient177"
       gradientUnits="userSpaceOnUse"
       gradientTransform="matrix(1.399756,0,0,0.903977,-2.86035,0.227876)" />
    <linearGradient
       x1="9.9626188"
       y1="8.7251825"
       x2="20.135639"
       y2="14.744809"
       id="linearGradient613"
       xlink:href="#linearGradient508"
       gradientUnits="userSpaceOnUse"
       gradientTransform="matrix(1.027326,-0.134612,0.528454,0.53648,8.12216,4.8634)" />
    <linearGradient
       x1="81.307533"
       y1="67.364906"
       x2="136.9856"
       y2="137.97153"
       id="linearGradient632"
       xlink:href="#linearGradient177"
       gradientUnits="userSpaceOnUse"
       gradientTransform="scale(1.244363,0.803624)" />
    <radialGradient
       cx="39.14772"
       cy="8.9303417"
       r="13.265761"
       fx="39.14772"
       fy="8.9303417"
       id="radialGradient640"
       xlink:href="#linearGradient641"
       gradientUnits="userSpaceOnUse"
       gradientTransform="matrix(0.878817,0,0,1.025708,1.24328,2.850095)" />
    <linearGradient
       x1="10.861447"
       y1="33.139202"
       x2="30.587307"
       y2="37.720802"
       id="linearGradient1068"
       xlink:href="#linearGradient1065"
       gradientUnits="userSpaceOnUse"
       gradientTransform="scale(1.175635,0.850604)" />
    <linearGradient
       x1="19.347122"
       y1="23.114082"
       x2="19.672924"
       y2="52.625473"
       id="linearGradient101"
       xlink:href="#linearGradient172"
       gradientUnits="userSpaceOnUse"
       gradientTransform="scale(1.175635,0.850604)" />
    <linearGradient
       x1="17.573946"
       y1="25.335417"
       x2="25.31245"
       y2="48.805084"
       id="linearGradient374"
       xlink:href="#linearGradient368"
       gradientUnits="userSpaceOnUse"
       gradientTransform="scale(1.175636,0.850604)" />
    <linearGradient
       x1="19.977491"
       y1="38.962704"
       x2="19.857769"
       y2="23.600779"
       id="linearGradient384"
       xlink:href="#linearGradient381"
       gradientUnits="userSpaceOnUse"
       gradientTransform="scale(1.215669,0.822592)" />
  </defs>
  <metadata
     id="metadata4">
    <rdf:RDF>
      <cc:Work
         rdf:about="">
        <dc:format>image/svg+xml</dc:format>
        <dc:type
           rdf:resource="http://purl.org/dc/dcmitype/StillImage" />
        <dc:title />
        <dc:date>2003-02-03</dc:date>
        <dc:creator>
          <cc:Agent>
            <dc:title>Jakub Steiner</dc:title>
          </cc:Agent>
        </dc:creator>
        <dc:subject>
          <rdf:Bag>
            <rdf:li>trash</rdf:li>
            <rdf:li>delete</rdf:li>
            <rdf:li>deleted files</rdf:li>
            <rdf:li>waste</rdf:li>
            <rdf:li>recycle</rdf:li>
            <rdf:li>bin</rdf:li>
            <rdf:li>full</rdf:li>
          </rdf:Bag>
        </dc:subject>
        <dc:publisher>
          <cc:Agent>
            <dc:title>Novell, Inc.</dc:title>
          </cc:Agent>
        </dc:publisher>
        <cc:license
           rdf:resource="http://creativecommons.org/licenses/by-sa/2.0/" />
      </cc:Work>
      <cc:License
         rdf:about="http://creativecommons.org/licenses/by-sa/2.0/">
        <cc:permits
           rdf:resource="http://web.resource.org/cc/Reproduction" />
        <cc:permits
           rdf:resource="http://web.resource.org/cc/Distribution" />
        <cc:requires
           rdf:resource="http://web.resource.org/cc/Notice" />
        <cc:requires
           rdf:resource="http://web.resource.org/cc/Attribution" />
        <cc:permits
           rdf:resource="http://web.resource.org/cc/DerivativeWorks" />
        <cc:requires
           rdf:resource="http://web.resource.org/cc/ShareAlike" />
      </cc:License>
    </rdf:RDF>
  </metadata>
  <g
     id="layer1" />
  <path
     d="m 3.836697,16.810238 c -0.044089,-0.03506 1.731963,25.223968 1.732469,25.231625 0.166614,2.522544 1.565267,3.444491 3.130763,3.448247 0.055941,1.29e-4 29.36948,-0.0032 29.994007,-0.0059 2.636366,-0.01109 3.282248,-1.61654 3.455675,-3.370659 0.01391,-0.03458 1.789053,-25.268751 1.80296,-25.303337 -13.371957,0 -26.743914,0 -40.115874,0 z"
     id="path1751"
     style="fill:#ff0900;fill-opacity:1;fill-rule:evenodd;stroke:#505050;stroke-width:1.25;stroke-linecap:butt;stroke-linejoin:miter;stroke-miterlimit:4;stroke-opacity:1"
     inkscape:connector-curvature="0" />
  <path
     d="M 7.538492,4.7306315 C 6.494167,4.7330003 5.620149,4.7569809 5.144078,5.7442051 5.061333,5.9157934 2.539129,12.879834 2.417869,13.145414 c -1.038105,2.273602 -0.08076,5.137624 1.92431,5.118449 0.381315,-0.0035 39.510222,0.01776 40.116984,0 1.706821,-0.04908 1.925238,-3.365584 1.190463,-4.857527 -0.04163,-0.08452 -3.451799,-7.7570361 -3.538774,-7.8929342 -0.402274,-0.6069229 -1.30313,-0.8729138 -1.972297,-0.8480012 -0.131821,0.00503 -32.4696,0.064936 -32.600063,0.065231 z"
     id="path1841"
     style="fill:url(#linearGradient1872);fill-opacity:1;fill-rule:evenodd;stroke:#505050;stroke-width:1.25;stroke-linecap:butt;stroke-linejoin:miter;stroke-miterlimit:4;stroke-opacity:1"
     inkscape:connector-curvature="0" />
  <path
     d="M 7.72045,6.3900545 C 6.735524,6.3773223 6.671388,6.3392466 6.449677,7.0362462 6.398497,7.1971422 4.336482,13.531607 4.255655,13.777418 c -0.274879,0.835953 0.113825,1.05657 1.067748,1.039577 0.337924,-0.006 37.346756,0 37.884766,0 0.763772,0 0.990332,-0.2516 0.817805,-0.845397 C 43.955868,13.730313 41.085266,6.9669634 41.008179,6.8465153 40.651639,6.3085929 40.713471,6.3101594 40.09072,6.3025755 39.973809,6.301151 7.836071,6.3915492 7.72045,6.3900545 Z"
     id="path1864"
     style="color:#000000;display:block;visibility:visible;fill:url(#linearGradient164);fill-opacity:1;fill-rule:evenodd;stroke:none;stroke-width:0;marker:none"
     inkscape:connector-curvature="0" />
  <path
     d="m 7.191437,6.3869852 c -0.370875,0.028313 -0.54926,0.1382019 -0.704493,0.6262163 -0.05118,0.1608959 -2.11093,6.4860145 -2.191758,6.7318255 -0.274879,0.835948 0.089771,1.060685 1.043695,1.043693 0.016523,-2.92e-4 1.953333,2.42e-4 2.136667,0 z"
     id="path1880"
     style="color:#000000;display:block;visibility:visible;fill:#2e3436;fill-opacity:1;fill-rule:evenodd;stroke:none;stroke-width:0;marker:none"
     inkscape:connector-curvature="0" />
  <path
     d="m 40.143457,6.2999077 c 0.450756,0.00385 0.583121,-0.00518 0.871284,0.5395238 0.03941,0.074491 2.874397,6.7931695 2.976187,7.0389795 0.34617,0.947104 -0.31313,0.927301 -1.358836,0.954772 -0.198658,-2.93e-4 -2.548854,-0.02199 -2.779734,-0.02223 l 0.291099,-8.5110423 z"
     id="path1888"
     style="color:#000000;display:block;visibility:visible;fill:url(#linearGradient160);fill-opacity:1;fill-rule:evenodd;stroke:none;stroke-width:0;marker:none"
     inkscape:connector-curvature="0" />
  <g
     id="g907"
     transform="matrix(0.03750054,0,0,0.03750054,22.90102,30.476345)"
     style="fill:#ffffff;fill-opacity:0.94117647">
    <path
       style="fill:#ffffff;fill-opacity:0.94117647;stroke-width:10"
       d="m 50.984197,63.573654 a 30,30 0 0 0 -23.117,-40.04 V 7.9946535 a 105,105 0 0 0 15,-207.9590035 v -5.583 A 150,150 0 0 1 170.8422,-32.319346 150,150 0 0 1 256.8742,165.12365 l -4.835,-2.792 A 105,105 0 0 0 64.441197,71.342654 Z m 34.148,-88.71 a 100,100 0 0 0 -124.53,0 95,95 0 0 1 -21.756,-27.417 135,135 0 0 1 168.042003,0 100,100 0 0 1 -21.756003,27.417 z"
       id="use5"
       inkscape:connector-curvature="0" />
    <path
       style="fill:#ffffff;fill-opacity:0.94117647;stroke-width:10"
       d="m -0.24993308,72.233694 a 30,30 0 0 0 46.23416008,9e-5 l 13.45717,7.7695 A 105,105 0 0 0 232.03918,196.97316 l 4.83502,2.7915 a 150,150 0 0 1 -214.007353,24.2156 150,150 0 0 1 -214.006657,-24.2156 l 4.83544,-2.79124 A 105,105 0 0 0 -13.706583,80.003294 Z M 59.501187,146.16172 A 100,100 0 0 0 121.76619,38.315584 95,95 0 0 1 156.38801,33.182834 135,135 0 0 1 72.367007,178.71147 100,100 0 0 1 59.501187,146.16172 Z"
       id="use7"
       inkscape:connector-curvature="0" />
    <path
       style="fill:#ffffff;fill-opacity:0.94117647;stroke-width:10"
       d="m 17.867327,23.533614 a 30,30 0 0 0 -23.1171601,40.03991 l -13.4571699,7.7695 A 105,105 0 0 0 -206.30478,162.33214 l -4.83502,2.7915 A 150,150 0 0 1 -125.10745,-32.319956 150,150 0 0 1 2.8672069,-205.54735 l -4.5e-4,5.58323 A 105,105 0 0 0 17.866977,7.9950135 Z m -93.89912,14.78197 a 100,100 0 0 0 62.265,107.846136 95,95 0 0 1 -12.86582,32.54975 135,135 0 0 1 -84.020997,-145.528636 100,100 0 0 1 34.621817,5.13275 z"
       id="use9"
       inkscape:connector-curvature="0" />
  </g>
</svg>
